<?xml version="1.0" encoding="UTF-8"?>
<!DOCTYPE svg PUBLIC "-//W3C//DTD SVG 1.1//EN" "http://www.w3.org/Graphics/SVG/1.1/DTD/svg11.dtd">
<!-- Creator: CorelDRAW 2020 (64-Bit) -->
<svg xmlns="http://www.w3.org/2000/svg" xml:space="preserve" width="52.9166mm" height="30.9032mm" version="1.1" style="shape-rendering:geometricPrecision; text-rendering:geometricPrecision; image-rendering:optimizeQuality; fill-rule:evenodd; clip-rule:evenodd"
viewBox="0 0 5291.66 3090.32"
 xmlns:xlink="http://www.w3.org/1999/xlink"
 xmlns:xodm="http://www.corel.com/coreldraw/odm/2003">
 <defs>
  <style type="text/css">
   <![CDATA[
    .fil0 {fill:white}
    .fil1 {fill:white;fill-rule:nonzero}
   ]]>
  </style>
 </defs>
 <g id="Capa_x0020_1">
  <metadata id="CorelCorpID_0Corel-Layer"/>
  <g id="_2208803887824">
   <path class="fil0" d="M1128.48 1689.05l0 -477.05 -483.74 0c-267.15,0 -483.73,213.58 -483.73,477.05 0,263.47 216.58,477.06 483.73,477.06 267.16,0 483.74,-213.59 483.74,-477.06z"/>
   <path class="fil0" d="M1128.48 665.04l0 408.07 -413.79 0c-228.53,0 -413.79,-182.7 -413.79,-408.07 0,-225.37 185.26,-408.07 413.79,-408.07 228.53,0 413.79,182.7 413.79,408.07z"/>
   <path class="fil0" d="M1269.32 746.46l0 326.65 331.22 0c182.94,0 331.23,-146.24 331.23,-326.65 0,-180.4 -148.29,-326.65 -331.23,-326.65 -182.93,0 -331.22,146.25 -331.22,326.65z"/>
   <path class="fil1" d="M1291.32 1951.89l136.06 0c15,-0.99 22.01,-7.89 22.01,-21.71l0 -111.47 280.1 0 0 111.47c0.99,14.8 7.99,21.71 22,21.71l136.05 0c15,-0.99 22,-7.89 22,-21.71l0 -682.66c-1,-14.8 -7.99,-21.7 -22,-21.7l-253.09 0c-118.05,0 -208.07,33.54 -271.1,100.61 -63.02,66.1 -94.03,178.58 -94.03,335.43l0 268.32c1.01,14.8 8.01,21.71 22,21.71zm438.17 -568.24l0 277.22 -280.1 0c0,-101.61 16.01,-173.64 48.01,-215.06 32.01,-41.44 78.04,-62.16 137.05,-62.16l95.04 0zm352.13 -157.83c-15.02,0 -22.02,6.9 -22.02,21.7l0 682.66c0,14.8 7,21.71 22.02,21.71l564.19 0c15,0 22.01,-6.91 22.01,-21.71l0 -114.44c0,-14.79 -7.01,-21.69 -22.01,-21.69l-406.15 0 0 -546.53c0,-14.8 -7,-21.7 -22.01,-21.7l-136.03 0z"/>
   <path class="fil1" d="M1766.48 2453.53c93.04,-50.3 140.05,-155.86 140.05,-314.7l0 -23.66c0,-14.8 -7,-21.71 -22,-21.71l-136.05 0c-15,0 -22.01,6.91 -22.01,21.71l0 23.66c0,109.51 -11.02,176.59 -33.02,201.26 -22.01,24.66 -66.01,37.48 -132.03,37.48l-112.05 0 0 -262.4c0,-14.8 -6.99,-21.71 -22.01,-21.71l-136.04 0c-15.01,0 -22,6.91 -22,21.71l0 682.66c0,14.8 6.99,21.7 22,21.7l136.04 0c15.02,0 22.01,-6.9 22.01,-21.7l0 -262.42 112.05 0c59.01,0 105.03,13.81 137.04,42.43 32.02,28.61 48.02,93.72 48.02,196.32l0 23.67c0,13.82 6.99,20.72 22.01,21.7l136.04 0c14.01,0 21.01,-6.9 22,-21.7l0 -23.67c0,-157.85 -31.01,-255.52 -94.03,-292.02 -19,-11.83 -41.02,-21.71 -66.02,-28.61zm511.17 -160.8c29.01,-36.51 72.03,-55.24 128.05,-55.24 57.02,0 100.03,18.73 130.05,55.24 29.01,36.51 44.01,90.76 44.01,161.79 0,71.03 -15,125.3 -45.02,163.76 -30,38.48 -73.02,57.23 -129.04,57.23 -55.02,0 -98.03,-18.75 -128.05,-57.23 -30,-38.46 -45.02,-92.73 -45.02,-163.76 0,-71.03 15.02,-125.28 45.02,-161.79zm-234.07 161.79c0,124.31 30,218.03 92.03,282.15 60.02,64.12 151.04,96.68 270.09,96.68 120.04,0 210.07,-32.56 272.1,-96.68 60.01,-64.12 91.02,-157.84 91.02,-282.15 0,-122.32 -30.01,-216.04 -91.02,-280.17 -61.02,-63.14 -151.06,-94.71 -272.1,-94.71 -120.03,0 -210.07,31.57 -271.09,94.71 -61.03,64.13 -91.03,157.85 -91.03,280.17zm881.3 -361.06c-15.01,0 -22.01,6.91 -22.01,21.71l0 682.66c0,14.8 7,21.7 22.01,21.7l564.19 0c15,0 22.01,-6.9 22.01,-21.7l0 -114.43c0,-14.8 -7.01,-21.7 -22.01,-21.7l-406.15 0 0 -546.53c0,-14.8 -6.98,-21.71 -22,-21.71l-136.04 0zm920.31 199.27c29.02,-36.51 72.03,-55.24 128.05,-55.24 57.01,0 100.03,18.73 130.05,55.24 29.01,36.51 44.01,90.76 44.01,161.79 0,71.03 -15,125.3 -45.02,163.76 -30,38.48 -73.03,57.23 -129.04,57.23 -55.02,0 -98.03,-18.75 -128.05,-57.23 -30,-38.46 -45.01,-92.73 -45.01,-163.76 0,-71.03 15.01,-125.28 45.01,-161.79zm-234.07 161.79c0,124.31 30,218.03 92.02,282.15 60.03,64.12 151.06,96.68 270.1,96.68 120.04,0 210.07,-32.56 272.09,-96.68 60.02,-64.12 91.02,-157.84 91.02,-282.15 0,-122.32 -30,-216.04 -91.02,-280.17 -61.02,-63.14 -151.04,-94.71 -272.09,-94.71 -120.04,0 -210.07,31.57 -271.09,94.71 -61.03,64.13 -91.03,157.85 -91.03,280.17zm1404.48 29.6c77.02,-28.6 115.04,-85.84 115.04,-173.62 0,-67.1 -23.01,-120.35 -68.03,-158.84 -45.02,-38.48 -108.04,-58.2 -189.07,-58.2l-381.12 0c-15.02,0 -22,6.91 -22,21.71l0 682.66c0,14.8 6.98,21.7 22,21.7l136.04 0c15.01,0 22.01,-6.9 22.01,-21.7l0 -242.69 112.04 0c59.02,0 105.03,10.86 137.05,32.56 32.01,21.7 48.01,83.86 48.01,186.46l0 23.67c0,13.82 7,20.72 22.02,21.7l136.03 0c14.02,0 21,-6.9 22.01,-21.7l0 -23.67c0,-157.85 -31.01,-251.57 -94.03,-282.15l-18 -7.89zm-365.13 -232.81l223.07 0c51.03,0 77.03,23.66 77.03,71.02 0,50.32 -26,74.98 -77.03,74.98l-223.07 0 0 -146z"/>
  </g>
 </g>
</svg>
