<?xml version="1.0" encoding="UTF-8"?>
<!DOCTYPE svg PUBLIC "-//W3C//DTD SVG 1.1//EN" "http://www.w3.org/Graphics/SVG/1.1/DTD/svg11.dtd">
<!-- Creator: CorelDRAW 2020 (64-Bit) -->
<svg xmlns="http://www.w3.org/2000/svg" xml:space="preserve" width="72.3898mm" height="37.6766mm" version="1.1" style="shape-rendering:geometricPrecision; text-rendering:geometricPrecision; image-rendering:optimizeQuality; fill-rule:evenodd; clip-rule:evenodd"
viewBox="0 0 7238.98 3767.66"
 xmlns:xlink="http://www.w3.org/1999/xlink"
 xmlns:xodm="http://www.corel.com/coreldraw/odm/2003">
 <defs>
  <style type="text/css">
   <![CDATA[
    .fil2 {fill:#00B7FA}
    .fil1 {fill:#9C286A}
    .fil0 {fill:#FFCC00}
    .fil3 {fill:#9C286A;fill-rule:nonzero}
   ]]>
  </style>
 </defs>
 <g id="Capa_x0020_1">
  <metadata id="CorelCorpID_0Corel-Layer"/>
  <g id="_2360444369408">
   <path class="fil0" d="M1423.3 2095.76l0 -690.01 -699.69 0c-386.42,0 -699.68,308.92 -699.68,690.01 0,381.09 313.26,690.02 699.68,690.02 386.43,0 699.69,-308.93 699.69,-690.02z"/>
   <path class="fil1" d="M1423.3 614.61l0 590.24 -598.51 0c-330.55,0 -598.51,-264.27 -598.51,-590.24 0,-325.98 267.96,-590.25 598.51,-590.25 330.55,0 598.51,264.27 598.51,590.25z"/>
   <path class="fil2" d="M1627.01 732.38l0 472.47 479.09 0c264.6,0 479.1,-211.53 479.1,-472.47 0,-260.94 -214.5,-472.47 -479.1,-472.47 -264.59,0 -479.09,211.53 -479.09,472.47z"/>
   <path class="fil3" d="M1658.84 2475.93l196.8 0c21.7,-1.43 31.83,-11.4 31.83,-31.39l0 -161.24 405.15 0 0 161.24c1.42,21.4 11.56,31.39 31.82,31.39l196.78 0c21.69,-1.43 31.82,-11.4 31.82,-31.39l0 -987.42c-1.44,-21.4 -11.56,-31.39 -31.82,-31.39l-366.08 0c-170.74,0 -300.96,48.52 -392.11,145.53 -91.16,95.61 -136.02,258.29 -136.02,485.17l0 388.11c1.47,21.4 11.59,31.39 31.83,31.39zm633.78 -821.9l0 400.97 -405.15 0c0,-146.97 23.16,-251.15 69.45,-311.08 46.3,-59.93 112.87,-89.89 198.22,-89.89l137.48 0zm509.32 -228.3c-21.72,0 -31.84,9.99 -31.84,31.39l0 987.42c0,21.4 10.12,31.39 31.84,31.39l816.06 0c21.69,0 31.83,-9.99 31.83,-31.39l0 -165.53c0,-21.39 -10.14,-31.38 -31.83,-31.38l-587.46 0 0 -790.51c0,-21.4 -10.12,-31.39 -31.84,-31.39l-196.76 0z"/>
   <path class="fil3" d="M2346.12 3201.52c134.57,-72.76 202.57,-225.44 202.57,-455.19l0 -34.23c0,-21.4 -10.13,-31.39 -31.83,-31.39l-196.77 0c-21.71,0 -31.84,9.99 -31.84,31.39l0 34.23c0,158.4 -15.94,255.42 -47.77,291.1 -31.82,35.67 -95.47,54.22 -190.96,54.22l-162.08 0 0 -379.55c0,-21.4 -10.11,-31.39 -31.83,-31.39l-196.78 0c-21.7,0 -31.82,9.99 -31.82,31.39l0 987.43c0,21.39 10.12,31.38 31.82,31.38l196.78 0c21.72,0 31.83,-9.99 31.83,-31.38l0 -379.57 162.08 0c85.35,0 151.91,19.97 198.21,61.36 46.31,41.39 69.47,135.56 69.47,283.97l0 34.24c0,19.98 10.1,29.96 31.82,31.38l196.78 0c20.26,0 30.38,-9.99 31.82,-31.38l0 -34.24c0,-228.32 -44.85,-369.59 -136.01,-422.39 -27.48,-17.11 -59.32,-31.39 -95.49,-41.38zm739.37 -232.59c41.96,-52.8 104.18,-79.9 185.21,-79.9 82.48,0 144.69,27.1 188.1,79.9 41.96,52.81 63.67,131.28 63.67,234.02 0,102.74 -21.71,181.23 -65.12,236.86 -43.4,55.66 -105.62,82.78 -186.65,82.78 -79.58,0 -141.79,-27.12 -185.21,-82.78 -43.39,-55.63 -65.12,-134.12 -65.12,-236.86 0,-102.74 21.73,-181.21 65.12,-234.02zm-338.57 234.02c0,179.81 43.4,315.37 133.11,408.11 86.82,92.74 218.48,139.83 390.67,139.83 173.63,0 303.85,-47.09 393.57,-139.83 86.81,-92.74 131.66,-228.3 131.66,-408.11 0,-176.93 -43.41,-312.49 -131.66,-405.24 -88.27,-91.33 -218.49,-137 -393.57,-137 -173.62,0 -303.85,45.67 -392.11,137 -88.27,92.75 -131.67,228.31 -131.67,405.24zm1274.73 -522.24c-21.71,0 -31.83,9.99 -31.83,31.39l0 987.43c0,21.39 10.12,31.38 31.83,31.38l816.06 0c21.7,0 31.83,-9.99 31.83,-31.38l0 -165.53c0,-21.4 -10.13,-31.39 -31.83,-31.39l-587.46 0 0 -790.51c0,-21.4 -10.1,-31.39 -31.83,-31.39l-196.77 0zm1331.16 288.22c41.97,-52.8 104.19,-79.9 185.21,-79.9 82.47,0 144.68,27.1 188.1,79.9 41.97,52.81 63.67,131.28 63.67,234.02 0,102.74 -21.7,181.23 -65.12,236.86 -43.4,55.66 -105.64,82.78 -186.65,82.78 -79.58,0 -141.79,-27.12 -185.21,-82.78 -43.4,-55.63 -65.11,-134.12 -65.11,-236.86 0,-102.74 21.71,-181.21 65.11,-234.02zm-338.57 234.02c0,179.81 43.4,315.37 133.1,408.11 86.83,92.74 218.5,139.83 390.68,139.83 173.63,0 303.85,-47.09 393.56,-139.83 86.81,-92.74 131.66,-228.3 131.66,-408.11 0,-176.93 -43.4,-312.49 -131.66,-405.24 -88.26,-91.33 -218.48,-137 -393.56,-137 -173.63,0 -303.85,45.67 -392.11,137 -88.27,92.75 -131.67,228.31 -131.67,405.24zm2031.47 42.81c111.4,-41.37 166.4,-124.15 166.4,-251.12 0,-97.05 -33.28,-174.09 -98.4,-229.75 -65.11,-55.66 -156.27,-84.18 -273.47,-84.18l-551.26 0c-21.73,0 -31.83,9.99 -31.83,31.39l0 987.43c0,21.39 10.1,31.38 31.83,31.38l196.77 0c21.71,0 31.83,-9.99 31.83,-31.38l0 -351.04 162.06 0c85.37,0 151.92,15.71 198.23,47.1 46.3,31.38 69.45,121.29 69.45,269.7l0 34.24c0,19.98 10.12,29.96 31.84,31.38l196.77 0c20.27,0 30.37,-9.99 31.83,-31.38l0 -34.24c0,-228.32 -44.85,-363.88 -136.01,-408.11l-26.04 -11.42zm-528.13 -336.74l322.66 0c73.8,0 111.42,34.23 111.42,102.72 0,72.79 -37.62,108.45 -111.42,108.45l-322.66 0 0 -211.17z"/>
  </g>
 </g>
</svg>
