<?xml version="1.0" encoding="UTF-8"?>
<!DOCTYPE svg PUBLIC "-//W3C//DTD SVG 1.1//EN" "http://www.w3.org/Graphics/SVG/1.1/DTD/svg11.dtd">
<!-- Creator: CorelDRAW 2020 (64-Bit) -->
<svg xmlns="http://www.w3.org/2000/svg" xml:space="preserve" width="52.9166mm" height="32.1732mm" version="1.1" style="shape-rendering:geometricPrecision; text-rendering:geometricPrecision; image-rendering:optimizeQuality; fill-rule:evenodd; clip-rule:evenodd"
viewBox="0 0 5291.66 3217.32"
 xmlns:xlink="http://www.w3.org/1999/xlink"
 xmlns:xodm="http://www.corel.com/coreldraw/odm/2003">
 <defs>
  <style type="text/css">
   <![CDATA[
    .fil4 {fill:#00BBFF}
    .fil0 {fill:gray}
    .fil3 {fill:#A31264}
    .fil2 {fill:#FFCC29}
    .fil1 {fill:white}
    .fil5 {fill:#A31264;fill-rule:nonzero}
   ]]>
  </style>
 </defs>
 <g id="Capa_x0020_1">
  <metadata id="CorelCorpID_0Corel-Layer"/>
  <g id="_2208788406656">
   <path class="fil0" d="M434.66 67.77l4422.33 0c217.22,0 394.67,177.45 394.67,394.67l0 2292.45c0,217.21 -177.45,394.66 -394.67,394.66l-4422.33 0c-217.22,0 -394.67,-177.45 -394.67,-394.66l0 -2292.45c0,-217.22 177.45,-394.67 394.67,-394.67z"/>
   <rect class="fil1" x="113.9" y="141.69" width="5063.84" height="2933.94" rx="339.31" ry="320.76"/>
   <g>
    <path class="fil2" d="M1273.96 1738.75l0 -431.31 -437.37 0c-241.54,0 -437.35,193.11 -437.35,431.31 0,238.22 195.81,431.32 437.35,431.32 241.55,0 437.37,-193.1 437.37,-431.32z"/>
    <path class="fil3" d="M1273.96 812.92l0 368.95 -374.12 0c-206.62,0 -374.12,-165.19 -374.12,-368.95 0,-203.76 167.5,-368.95 374.12,-368.95 206.61,0 374.12,165.19 374.12,368.95z"/>
    <path class="fil4" d="M1401.29 886.53l0 295.34 299.47 0c165.39,0 299.47,-132.23 299.47,-295.34 0,-163.1 -134.08,-295.33 -299.47,-295.33 -165.4,0 -299.47,132.23 -299.47,295.33z"/>
    <path class="fil5" d="M1421.19 1976.39l123.01 0c13.56,-0.89 19.9,-7.13 19.9,-19.62l0 -100.79 253.24 0 0 100.79c0.9,13.38 7.23,19.62 19.9,19.62l123 0c13.56,-0.89 19.89,-7.13 19.89,-19.62l0 -617.22c-0.9,-13.37 -7.23,-19.62 -19.89,-19.62l-228.83 0c-106.72,0 -188.12,30.33 -245.1,90.97 -56.98,59.77 -85.02,161.46 -85.02,303.27l0 242.6c0.91,13.38 7.24,19.62 19.9,19.62zm396.15 -513.75l0 250.63 -253.24 0c0,-91.86 14.47,-156.98 43.41,-194.44 28.94,-37.46 70.55,-56.19 123.9,-56.19l85.93 0zm318.37 -142.71c-13.58,0 -19.9,6.25 -19.9,19.62l0 617.22c0,13.38 6.32,19.62 19.9,19.62l510.1 0c13.56,0 19.9,-6.24 19.9,-19.62l0 -103.47c0,-13.37 -6.34,-19.62 -19.9,-19.62l-367.21 0 0 -494.13c0,-13.37 -6.32,-19.62 -19.9,-19.62l-122.99 0z"/>
    <path class="fil5" d="M1850.79 2429.94c84.11,-45.48 126.62,-140.91 126.62,-284.53l0 -21.39c0,-13.38 -6.33,-19.63 -19.9,-19.63l-123 0c-13.56,0 -19.89,6.25 -19.89,19.63l0 21.39c0,99.01 -9.97,159.66 -29.86,181.96 -19.9,22.3 -59.68,33.89 -119.37,33.89l-101.31 0 0 -237.24c0,-13.38 -6.32,-19.63 -19.9,-19.63l-123 0c-13.57,0 -19.89,6.25 -19.89,19.63l0 617.21c0,13.38 6.32,19.62 19.89,19.62l123 0c13.58,0 19.9,-6.24 19.9,-19.62l0 -237.26 101.31 0c53.35,0 94.95,12.49 123.89,38.36 28.96,25.87 43.43,84.73 43.43,177.5l0 21.4c0,12.49 6.31,18.73 19.89,19.62l123 0c12.67,0 18.99,-6.24 19.89,-19.62l0 -21.4c0,-142.71 -28.03,-231.02 -85.01,-264.02 -17.18,-10.7 -37.09,-19.63 -59.69,-25.87zm462.16 -145.38c26.23,-33.01 65.12,-49.95 115.77,-49.95 51.56,0 90.44,16.94 117.58,49.95 26.23,33.01 39.8,82.06 39.8,146.27 0,64.23 -13.57,113.29 -40.71,148.06 -27.12,34.79 -66.02,51.75 -116.67,51.75 -49.74,0 -88.63,-16.96 -115.77,-51.75 -27.12,-34.77 -40.7,-83.83 -40.7,-148.06 0,-64.21 13.58,-113.26 40.7,-146.27zm-211.63 146.27c0,112.4 27.13,197.14 83.2,255.11 54.27,57.97 136.57,87.4 244.2,87.4 108.53,0 189.93,-29.43 246.02,-87.4 54.25,-57.97 82.29,-142.71 82.29,-255.11 0,-110.59 -27.13,-195.32 -82.29,-253.3 -55.18,-57.09 -136.58,-85.64 -246.02,-85.64 -108.52,0 -189.93,28.55 -245.1,85.64 -55.17,57.98 -82.3,142.71 -82.3,253.3zm796.81 -326.44c-13.58,0 -19.9,6.25 -19.9,19.63l0 617.21c0,13.38 6.32,19.62 19.9,19.62l510.1 0c13.56,0 19.89,-6.24 19.89,-19.62l0 -103.46c0,-13.38 -6.33,-19.62 -19.89,-19.62l-367.21 0 0 -494.13c0,-13.38 -6.32,-19.63 -19.9,-19.63l-122.99 0zm832.07 180.17c26.24,-33.01 65.13,-49.95 115.77,-49.95 51.55,0 90.44,16.94 117.58,49.95 26.24,33.01 39.8,82.06 39.8,146.27 0,64.23 -13.56,113.29 -40.71,148.06 -27.12,34.79 -66.03,51.75 -116.67,51.75 -49.74,0 -88.63,-16.96 -115.77,-51.75 -27.12,-34.77 -40.7,-83.83 -40.7,-148.06 0,-64.21 13.58,-113.26 40.7,-146.27zm-211.63 146.27c0,112.4 27.13,197.14 83.2,255.11 54.27,57.97 136.58,87.4 244.2,87.4 108.54,0 189.93,-29.43 246.01,-87.4 54.26,-57.97 82.3,-142.71 82.3,-255.11 0,-110.59 -27.13,-195.32 -82.3,-253.3 -55.17,-57.09 -136.56,-85.64 -246.01,-85.64 -108.53,0 -189.93,28.55 -245.1,85.64 -55.17,57.98 -82.3,142.71 -82.3,253.3zm1269.83 26.76c69.63,-25.85 104.01,-77.6 104.01,-156.97 0,-60.66 -20.8,-108.81 -61.51,-143.61 -40.7,-34.79 -97.68,-52.62 -170.94,-52.62l-344.58 0c-13.58,0 -19.89,6.25 -19.89,19.63l0 617.21c0,13.38 6.31,19.62 19.89,19.62l123 0c13.57,0 19.9,-6.24 19.9,-19.62l0 -219.42 101.3 0c53.36,0 94.96,9.82 123.91,29.44 28.94,19.62 43.41,75.81 43.41,168.58l0 21.4c0,12.49 6.32,18.73 19.9,19.62l122.99 0c12.67,0 18.99,-6.24 19.9,-19.62l0 -21.4c0,-142.71 -28.03,-227.45 -85.01,-255.1l-16.28 -7.14zm-330.12 -210.49l201.68 0c46.14,0 69.65,21.4 69.65,64.22 0,45.5 -23.51,67.79 -69.65,67.79l-201.68 0 0 -132.01z"/>
   </g>
  </g>
 </g>
</svg>
